<svg id="Banner" xmlns="http://www.w3.org/2000/svg" xmlns:xlink="http://www.w3.org/1999/xlink" viewBox="0 0 467.23 166.69"><defs><style>.cls-1{fill:none;}.cls-2{clip-path:url(#clip-path);}.cls-3{fill:url(#radial-gradient);}.cls-4{fill:#e6e6e6;}.cls-5{fill:#15374c;}.cls-6{fill:#666;}</style><clipPath id="clip-path"><rect class="cls-1" x="6.47" y="0.16" width="166.52" height="166.52" rx="53.66"/></clipPath><radialGradient id="radial-gradient" cx="89.89" cy="82.17" r="96.29" gradientTransform="matrix(1, 0, 0, -1.03, 0, 168.19)" gradientUnits="userSpaceOnUse"><stop offset="0" stop-color="#78d5f4"/><stop offset="0.18" stop-color="#74d4f4"/><stop offset="0.37" stop-color="#68d0f3"/><stop offset="0.55" stop-color="#54caf1"/><stop offset="0.73" stop-color="#38c1ef"/><stop offset="0.91" stop-color="#14b6ec"/><stop offset="1" stop-color="#00b0ea"/></radialGradient></defs><g id="Logo"><g class="cls-2"><rect class="cls-3" x="6.63" width="166.52" height="166.52" rx="23.74"/><path class="cls-4" d="M94,40.72l13.84,8.36L82.24,79.63H59.32Zm24.11,11.55H101.38l-29-42.2h19l16.9,27.61h12.5Zm-1.59-42.15h17.91L122.19,79.63h-17.9ZM133,37.68l26.59-27.54h20.58L135.89,52.27H118.14l2.62-14.59Zm-3.58,11.4,15.32-8.4L165.3,79.63H144.06Z"/><path class="cls-5" d="M34.7,117.62,48.55,126,22.91,156.53H0Zm24.09,11.56H42.05L13,87H32l16.9,27.59H61.44ZM57.23,87H75.14L62.87,156.53H45Zm16.42,27.55L100.24,87h20.58L76.57,129.16H58.81l2.63-14.6ZM70.07,126l15.33-8.4L106,156.51H84.73Z"/></g></g><g id="Text"><path class="cls-5" d="M244.92,62.31H249v14h7.26v3H244.92Z"/><path class="cls-5" d="M258.35,73.71h4V74a3.29,3.29,0,0,0,.51,2.14,2,2,0,0,0,1.53.55,1.9,1.9,0,0,0,1.54-.6,3.66,3.66,0,0,0,.51-2.29V62.31h4.05V73.42a6.31,6.31,0,0,1-1.62,4.68,6,6,0,0,1-4.43,1.61A6.54,6.54,0,0,1,260,78.32a5.48,5.48,0,0,1-1.63-4.4Z"/><path class="cls-5" d="M272.77,70.35h6.78v3.29h-6.78Z"/><path class="cls-5" d="M281.93,62.31h5.94a8.59,8.59,0,0,1,5.87,2.09,7.45,7.45,0,0,1,2.37,5.9v1.07a7.45,7.45,0,0,1-2.37,5.91,8.55,8.55,0,0,1-5.87,2.09h-5.94Zm5.87,14.11a3.93,3.93,0,0,0,3-1.23A5.21,5.21,0,0,0,292,71.46V70.22a5.23,5.23,0,0,0-1.16-3.73,4,4,0,0,0-3-1.22H286V76.42Z"/><path class="cls-5" d="M299,62.31h4v14h7.27v3H299Z"/><path class="cls-5" d="M311.29,70.35h6.78v3.29h-6.78Z"/><path class="cls-5" d="M320.38,62.31h4V79.37h-4Z"/><path class="cls-5" d="M327.87,62.31H333l3.75,10.45a7.39,7.39,0,0,1,.25.76,6.06,6.06,0,0,1,.15.8h.07c.05-.31.11-.58.17-.81l.24-.75,3.78-10.45h5.25V79.37h-4V69c0-.27,0-.57,0-.89s0-.62.05-.89h-.09c0,.27-.09.56-.16.89a8.76,8.76,0,0,1-.24.89L338.5,79.37h-3.26L331.52,69a8.76,8.76,0,0,1-.24-.89c-.07-.33-.13-.62-.17-.89H331c0,.27,0,.56.05.89s0,.62,0,.89V79.37h-3.22Z"/><path class="cls-5" d="M349.54,70.31c0-2.76.71-4.84,2.15-6.24a7.8,7.8,0,0,1,5.7-2.1,7.92,7.92,0,0,1,5.14,1.55,4.75,4.75,0,0,1,1.85,3.95v.17h-4.07V67.5a2.35,2.35,0,0,0-.77-1.79,3.3,3.3,0,0,0-2.32-.7,3.16,3.16,0,0,0-2.57,1.16,5.64,5.64,0,0,0-1,3.64v2.06a5.24,5.24,0,0,0,1.08,3.7,3.84,3.84,0,0,0,2.9,1.13,5.09,5.09,0,0,0,1.51-.19,4.12,4.12,0,0,0,1.24-.62V73.17h-3V70.23h7v7a8.81,8.81,0,0,1-2.59,1.71,10,10,0,0,1-4.14.77,8.16,8.16,0,0,1-6-2.1c-1.44-1.39-2.15-3.48-2.15-6.24Z"/><path class="cls-6" d="M244.91,89.64h2v14.93h-2Zm3.18,6.42,5.59-6.42h2.22l-7,8h-3V96.06Zm-.6.92,1.64-.85,7.22,8.44h-2.42Z"/><path class="cls-6" d="M258.37,98.84a5.62,5.62,0,0,1,3.31-.91h2.44v-.74a2.36,2.36,0,0,0-.5-1.58,2.11,2.11,0,0,0-1.73-.61,2.49,2.49,0,0,0-1.76.5,1.6,1.6,0,0,0-.53,1.18v0h-1.89v0a2.85,2.85,0,0,1,1.14-2.24,4.64,4.64,0,0,1,3.09-1,4.45,4.45,0,0,1,3,.93A3.5,3.5,0,0,1,266,97.19v4.92a8.36,8.36,0,0,0,.1,1.26,5.37,5.37,0,0,0,.29,1v.16h-1.84a3,3,0,0,1-.27-.66,4.85,4.85,0,0,1-.14-.82,3.48,3.48,0,0,1-1.23,1.17,4.07,4.07,0,0,1-2.18.52,4,4,0,0,1-2.61-.87,3,3,0,0,1-1.08-2.52A2.94,2.94,0,0,1,258.37,98.84Zm1.14,3.9a2.3,2.3,0,0,0,1.66.52,3.07,3.07,0,0,0,2-.78,2.19,2.19,0,0,0,.91-1.65V99.28h-2.23a3.56,3.56,0,0,0-2.17.55,1.7,1.7,0,0,0-.74,1.46A1.92,1.92,0,0,0,259.51,102.74Z"/><path class="cls-6" d="M271.18,98.5A2.46,2.46,0,0,0,273,99a9.2,9.2,0,0,0,1.65-.13c.5-.09,1-.21,1.64-.36V100l-1.63.34a10.85,10.85,0,0,1-2,.15,3.83,3.83,0,0,1-2.91-1,4.1,4.1,0,0,1-.9-2.9V93.79h1.91v2.86A2.66,2.66,0,0,0,271.18,98.5Zm6,6.07h-1.91V93.79h1.91Z"/><path class="cls-6" d="M280.94,98.84a5.62,5.62,0,0,1,3.31-.91h2.44v-.74a2.36,2.36,0,0,0-.5-1.58,2.11,2.11,0,0,0-1.73-.61,2.49,2.49,0,0,0-1.76.5,1.6,1.6,0,0,0-.53,1.18v0h-1.9v0a2.86,2.86,0,0,1,1.15-2.24,4.64,4.64,0,0,1,3.09-1,4.45,4.45,0,0,1,3,.93,3.5,3.5,0,0,1,1.07,2.78v4.92a8.36,8.36,0,0,0,.1,1.26,5.37,5.37,0,0,0,.29,1v.16h-1.84a3,3,0,0,1-.27-.66,6.17,6.17,0,0,1-.15-.82,3.36,3.36,0,0,1-1.22,1.17,4.07,4.07,0,0,1-2.18.52,4,4,0,0,1-2.61-.87,3,3,0,0,1-1.08-2.52A2.94,2.94,0,0,1,280.94,98.84Zm1.14,3.9a2.3,2.3,0,0,0,1.66.52,3.07,3.07,0,0,0,2-.78,2.19,2.19,0,0,0,.91-1.65V99.28h-2.23a3.62,3.62,0,0,0-2.18.55,1.72,1.72,0,0,0-.73,1.46A1.92,1.92,0,0,0,282.08,102.74Z"/><path class="cls-6" d="M294.12,99.55a11.62,11.62,0,0,1-.7,4,2.13,2.13,0,0,1-2.13,1.23,4.06,4.06,0,0,1-.64,0,1.8,1.8,0,0,1-.49-.14V103a1.5,1.5,0,0,0,.36.11,2.77,2.77,0,0,0,.42,0,1.07,1.07,0,0,0,1.08-.83,14,14,0,0,0,.35-3l.24-5.49h7.46v10.78h-1.9v-9.3H294.3Z"/><path class="cls-6" d="M305.05,104.57h-1.91V93.79h1.91Zm.88-6.25,3.95-4.53h2.23l-5.28,6h-2.74V98.32Zm-.09,1.36L307,98.39l5.46,6.18h-2.34Z"/><path class="cls-6" d="M314.54,98.84a5.66,5.66,0,0,1,3.32-.91h2.44v-.74a2.36,2.36,0,0,0-.51-1.58,2.11,2.11,0,0,0-1.73-.61,2.49,2.49,0,0,0-1.76.5,1.6,1.6,0,0,0-.53,1.18v0h-1.89v0A2.85,2.85,0,0,1,315,94.44a4.64,4.64,0,0,1,3.09-1,4.45,4.45,0,0,1,3,.93,3.47,3.47,0,0,1,1.07,2.78v4.92a7.21,7.21,0,0,0,.11,1.26,4.76,4.76,0,0,0,.28,1v.16h-1.84a3,3,0,0,1-.27-.66,4.85,4.85,0,0,1-.14-.82,3.4,3.4,0,0,1-1.23,1.17,4.07,4.07,0,0,1-2.18.52,4,4,0,0,1-2.61-.87,3,3,0,0,1-1.08-2.52A2.94,2.94,0,0,1,314.54,98.84Zm1.14,3.9a2.3,2.3,0,0,0,1.66.52,3.07,3.07,0,0,0,2-.78,2.2,2.2,0,0,0,.92-1.65V99.28h-2.24a3.56,3.56,0,0,0-2.17.55,1.7,1.7,0,0,0-.74,1.46A2,2,0,0,0,315.68,102.74Z"/><path class="cls-6" d="M334.77,96.13l1.58.85-5.51,7.59h-2.26Zm3.14,1.54h-3l-6-8h2.24l4.69,6.42h2.07Zm-1-8h1.93v14.93H337Zm3,6.42,4.69-6.42h2.22l-6.05,8h-2.93V96.06Zm-.49.92,1.66-.85,6.2,8.44H345Z"/><path class="cls-6" d="M354.39,96.13,356,97l-5.52,7.59h-2.26Zm3.14,1.54h-3l-6-8h2.25l4.68,6.42h2.08Zm-1-8h1.93v14.93h-1.93Zm3,6.42,4.68-6.42h2.23l-6.05,8h-2.93V96.06Zm-.49.92,1.66-.85,6.19,8.44h-2.34Z"/><path class="cls-6" d="M374.11,98.84a5.6,5.6,0,0,1,3.31-.91h2.44v-.74a2.41,2.41,0,0,0-.5-1.58,2.15,2.15,0,0,0-1.74-.61,2.5,2.5,0,0,0-1.76.5,1.59,1.59,0,0,0-.52,1.18v0h-1.9v0a2.85,2.85,0,0,1,1.14-2.24,4.68,4.68,0,0,1,3.09-1,4.45,4.45,0,0,1,3,.93,3.47,3.47,0,0,1,1.08,2.78v4.92a7.23,7.23,0,0,0,.1,1.26,4.74,4.74,0,0,0,.29,1v.16h-1.85a3,3,0,0,1-.26-.66,4.06,4.06,0,0,1-.15-.82,3.32,3.32,0,0,1-1.23,1.17,4.55,4.55,0,0,1-4.79-.35,3,3,0,0,1-1.08-2.52A2.94,2.94,0,0,1,374.11,98.84Zm1.13,3.9a2.31,2.31,0,0,0,1.67.52,3.07,3.07,0,0,0,2-.78,2.22,2.22,0,0,0,.91-1.65V99.28h-2.24a3.58,3.58,0,0,0-2.17.55,1.73,1.73,0,0,0-.74,1.46A2,2,0,0,0,375.24,102.74Z"/><path class="cls-6" d="M387.28,99.55a11.43,11.43,0,0,1-.69,4,2.15,2.15,0,0,1-2.14,1.23,4.26,4.26,0,0,1-.64,0,1.91,1.91,0,0,1-.49-.14V103a1.58,1.58,0,0,0,.37.11,2.63,2.63,0,0,0,.41,0,1.07,1.07,0,0,0,1.08-.83,13.2,13.2,0,0,0,.36-3l.23-5.49h7.47v10.78h-1.91v-9.3h-3.86Z"/><path class="cls-6" d="M398.21,97.48h2.48a4.59,4.59,0,0,1,3.13,1,3.24,3.24,0,0,1,1.1,2.57,3.32,3.32,0,0,1-1.1,2.6,4.55,4.55,0,0,1-3.13,1h-4.38V93.79h1.9Zm0,1.48v4.13h2.48a2.3,2.3,0,0,0,1.8-.59A2.17,2.17,0,0,0,403,101a2.07,2.07,0,0,0-.52-1.46,2.34,2.34,0,0,0-1.8-.58Z"/><path class="cls-6" d="M415.44,95.41a5.84,5.84,0,0,1,1.24,3.81v.33a5.45,5.45,0,0,1-1.38,3.84,4.84,4.84,0,0,1-3.7,1.49,4.79,4.79,0,0,1-3.75-1.5q-1.34-1.5-1.34-5V98.1a11.23,11.23,0,0,1,1.24-5.81c.84-1.36,2.37-2.21,4.62-2.55a7.32,7.32,0,0,0,2-.47.72.72,0,0,0,.32-.45h1.68a2.45,2.45,0,0,1-.86,1.71,6.24,6.24,0,0,1-3,.93,5,5,0,0,0-3.54,1.62A6.55,6.55,0,0,0,408,96.36h.12a4.11,4.11,0,0,1,1.56-1.81,4.37,4.37,0,0,1,2.43-.66A4.12,4.12,0,0,1,415.44,95.41Zm-7,4.14a4.43,4.43,0,0,0,.79,2.68,3.07,3.07,0,0,0,4.69,0,4.43,4.43,0,0,0,.79-2.68v-.33a4.43,4.43,0,0,0-.79-2.68,3.07,3.07,0,0,0-4.69,0,4.43,4.43,0,0,0-.79,2.68Z"/><path class="cls-6" d="M418.42,99a5.76,5.76,0,0,1,1.39-4,5.19,5.19,0,0,1,7.4,0,5.76,5.76,0,0,1,1.39,4v.33a5.77,5.77,0,0,1-1.39,4,5.19,5.19,0,0,1-7.4,0,5.77,5.77,0,0,1-1.39-4Zm1.95.33a4.94,4.94,0,0,0,.79,2.83,3,3,0,0,0,4.7,0,4.94,4.94,0,0,0,.79-2.83V99a4.93,4.93,0,0,0-.79-2.82,3,3,0,0,0-4.7,0,4.93,4.93,0,0,0-.79,2.82Z"/><path class="cls-6" d="M431,93.79h2.61l3.13,7.43c.16.4.27.67.31.82s.09.32.13.48h.1a4.21,4.21,0,0,1,.12-.48,8.1,8.1,0,0,1,.31-.8l3.15-7.45h2.55v10.78h-1.81V97.23c0-.4,0-.69,0-.87s0-.33,0-.46h-.09c0,.13-.08.29-.13.46s-.15.45-.31.84L438,104.57h-1.64l-3.13-7.4a7.82,7.82,0,0,1-.29-.8c-.05-.18-.1-.34-.13-.47h-.1c0,.13,0,.29,0,.46s0,.44,0,.8v7.41H431Z"/><path class="cls-6" d="M445.78,99a5.71,5.71,0,0,1,1.39-4,5.19,5.19,0,0,1,7.4,0A5.76,5.76,0,0,1,456,99v.33a5.76,5.76,0,0,1-1.38,4,5.19,5.19,0,0,1-7.4,0,5.72,5.72,0,0,1-1.39-4Zm2,.33a4.86,4.86,0,0,0,.79,2.83,3,3,0,0,0,4.7,0,4.94,4.94,0,0,0,.79-2.83V99a4.93,4.93,0,0,0-.79-2.82,3,3,0,0,0-4.7,0,4.85,4.85,0,0,0-.79,2.82Z"/><path class="cls-6" d="M458.34,93.79H463a4.85,4.85,0,0,1,2.82.71,2.46,2.46,0,0,1,1,2.17,2.17,2.17,0,0,1-.55,1.52,2.59,2.59,0,0,1-1.46.8v0a3,3,0,0,1,1.76.79,2.19,2.19,0,0,1,.63,1.61,2.77,2.77,0,0,1-1.07,2.32,4.57,4.57,0,0,1-2.85.82h-5ZM463,98.35a2.07,2.07,0,0,0,1.47-.43,1.51,1.51,0,0,0,.46-1.15,1.4,1.4,0,0,0-.46-1.11,2.23,2.23,0,0,0-1.47-.39h-2.75v3.08Zm.31,4.74a2.19,2.19,0,0,0,1.52-.46,1.57,1.57,0,0,0,.49-1.2,1.5,1.5,0,0,0-.49-1.16,2.17,2.17,0,0,0-1.52-.44h-3.06v3.26Z"/></g></svg>